<?xml version="1.0" encoding="UTF-8" standalone="no"?>
<svg xmlns="http://www.w3.org/2000/svg"
     xmlns:svg="http://www.w3.org/2000/svg"
     version="1.1"
     width="3.41333in" height="3.41333in"
     viewBox="0 0 1024 1024">
  <path id="Selection"
        fill="none" stroke="black" stroke-width="1"
        d="M 574.00,789.00
           C 574.00,789.00 574.00,814.00 574.00,814.00
             574.00,818.10 574.46,824.32 572.92,828.00
             570.22,834.43 563.74,840.00 559.09,845.00
             550.96,853.74 552.54,856.98 540.00,857.00
             540.00,857.00 485.00,857.00 485.00,857.00
             473.16,856.94 476.40,853.40 464.00,842.17
             454.59,833.64 450.02,831.48 449.84,818.00
             449.84,818.00 449.84,798.00 449.84,798.00
             450.00,795.91 450.10,793.15 449.83,791.17
             449.83,791.17 438.27,771.00 438.27,771.00
             438.27,771.00 426.61,748.10 426.61,748.10
             423.11,744.07 418.96,743.26 415.19,739.67
             410.11,734.84 410.01,730.48 410.00,724.00
             410.00,724.00 409.00,666.00 409.00,666.00
             409.00,666.00 408.00,651.00 408.00,651.00
             408.00,651.00 408.00,630.00 408.00,630.00
             408.00,630.00 409.00,619.96 409.00,619.96
             408.24,616.99 403.31,610.94 401.36,608.00
             397.46,602.13 395.04,596.60 392.69,590.00
             392.69,590.00 376.69,542.00 376.69,542.00
             374.48,535.78 372.21,527.72 369.10,522.00
             364.31,513.20 358.51,508.34 352.46,501.00
             344.28,491.07 337.10,480.24 330.86,469.00
             317.87,445.59 308.04,412.88 308.00,386.00
             308.00,386.00 308.00,359.00 308.00,359.00
             308.29,334.95 318.55,302.21 329.70,281.00
             349.54,243.29 381.01,210.85 419.00,191.26
             497.38,150.84 596.40,167.21 657.30,231.17
             674.98,249.74 687.58,266.64 698.31,290.00
             708.03,311.17 716.96,337.46 717.00,361.00
             717.00,361.00 715.72,401.00 715.72,401.00
             712.46,427.82 702.47,455.89 688.55,479.00
             682.89,488.40 675.72,496.95 668.49,505.17
             663.21,511.16 657.57,516.57 654.24,524.00
             654.24,524.00 648.50,540.00 648.50,540.00
             648.50,540.00 631.39,591.00 631.39,591.00
             628.68,598.10 627.26,602.29 623.27,609.00
             621.48,612.01 617.10,617.93 616.80,621.00
             616.80,621.00 616.80,632.00 616.80,632.00
             616.80,632.00 616.00,675.00 616.00,675.00
             616.00,675.00 615.04,687.00 615.04,687.00
             615.04,687.00 615.04,701.00 615.04,701.00
             615.04,701.00 614.00,717.00 614.00,717.00
             614.00,717.00 614.00,726.00 614.00,726.00
             613.96,732.97 612.91,737.04 606.98,741.51
             604.42,743.44 601.72,744.05 599.84,746.39
             598.25,748.37 596.07,755.21 594.83,758.00
             594.83,758.00 584.98,777.00 584.98,777.00
             582.11,782.45 580.22,787.13 574.00,789.00 Z" />
</svg>
